<?xml version="1.0" standalone="no"?>
<!DOCTYPE svg PUBLIC "-//W3C//DTD SVG 20010904//EN"
 "http://www.w3.org/TR/2001/REC-SVG-20010904/DTD/svg10.dtd">
<svg version="1.0" xmlns="http://www.w3.org/2000/svg"
 width="812.000000pt" height="248.000000pt" viewBox="0 0 812.000000 248.000000"
 preserveAspectRatio="xMidYMid meet">

<g transform="translate(0.000000,248.000000) scale(0.100000,-0.100000)"
fill="#000000" stroke="none">
<path d="M0 1240 l0 -1240 4060 0 4060 0 0 1240 0 1240 -4060 0 -4060 0 0
-1240z m3293 714 c50 -17 97 -63 97 -95 0 -17 -8 -19 -78 -19 -53 0 -84 5 -98
15 -24 18 -65 19 -90 1 -18 -14 -18 -15 6 -20 14 -3 57 -7 96 -9 83 -5 142
-30 164 -69 13 -24 12 -31 -6 -75 -15 -37 -30 -54 -64 -73 -40 -22 -57 -25
-150 -25 -85 0 -113 4 -145 20 -35 18 -85 74 -85 96 0 16 173 10 194 -6 25
-19 47 -19 72 -1 29 22 10 30 -86 37 -137 10 -195 49 -176 123 10 39 56 85
101 101 55 19 190 19 248 -1z m502 5 c43 -12 115 -76 115 -103 0 -24 -146 -23
-188 1 -23 13 -37 15 -58 8 -49 -17 -27 -30 64 -36 93 -7 164 -33 176 -64 20
-54 -12 -123 -74 -159 -30 -18 -52 -21 -145 -21 -97 0 -115 3 -151 23 -38 22
-74 66 -74 91 0 17 161 14 184 -4 25 -19 57 -19 82 0 28 22 3 35 -71 35 -124
1 -188 32 -193 93 -6 65 35 112 118 138 38 11 170 10 215 -2z m-1928 -14 c103
-31 137 -123 70 -190 -31 -31 -32 -34 -15 -44 20 -12 31 -37 41 -88 l7 -33
-80 0 -79 0 -11 40 c-15 54 -41 70 -117 70 l-63 0 0 -55 0 -55 -80 0 -80 0 0
185 0 185 178 0 c130 0 192 -4 229 -15z m647 -165 c64 -100 116 -183 116 -185
0 -3 -36 -5 -79 -5 -78 0 -80 1 -98 30 l-17 30 -114 0 -113 0 -17 -30 c-17
-29 -18 -30 -100 -30 l-84 0 19 28 c10 16 63 99 118 185 l100 157 76 0 77 0
116 -180z m346 -5 l0 -185 -80 0 -80 0 0 185 0 185 80 0 80 0 0 -185z m1596 5
c63 -96 114 -178 114 -182 0 -5 -36 -8 -80 -8 -78 0 -80 0 -95 30 l-16 30
-114 0 -114 0 -18 -30 c-17 -29 -19 -30 -100 -30 l-83 0 53 83 c29 45 82 128
118 184 l64 103 79 -3 79 -2 113 -175z m-2836 -630 c0 -44 3 -80 6 -80 3 0 57
36 120 80 l115 80 106 0 107 0 -134 -92 c-122 -84 -132 -93 -114 -104 10 -7
71 -49 134 -94 l114 -80 -106 0 -105 0 -78 60 -77 60 -44 -31 c-35 -24 -44
-36 -44 -59 l0 -30 -80 0 -80 0 0 185 0 185 80 0 80 0 0 -80z m670 -105 l0
-185 -80 0 -80 0 0 185 0 185 80 0 80 0 0 -185z m381 55 l82 -130 81 130 81
130 98 0 97 0 0 -185 0 -185 -80 0 -79 0 -3 111 -3 111 -65 -111 -64 -111 -63
0 -62 0 -63 105 -63 105 -3 -105 -3 -105 -79 0 -80 0 0 185 0 185 94 0 94 0
83 -130z m965 119 c80 -20 113 -104 58 -148 l-25 -20 30 -16 c39 -20 52 -45
45 -84 -15 -73 -83 -91 -344 -91 l-190 0 0 185 0 185 191 0 c108 0 209 -5 235
-11z m624 -34 l0 -45 -135 0 -135 0 0 -30 0 -30 115 0 115 0 0 -35 0 -35 -115
0 -115 0 0 -30 0 -30 145 0 145 0 0 -45 0 -45 -230 0 -230 0 0 185 0 185 220
0 220 0 0 -45z m507 30 c103 -31 137 -123 70 -190 -31 -31 -32 -34 -15 -44 20
-12 31 -37 41 -88 l7 -33 -80 0 -79 0 -11 40 c-15 54 -41 70 -117 70 l-63 0 0
-55 0 -55 -80 0 -80 0 0 185 0 185 178 0 c130 0 192 -4 229 -15z m343 -125 l0
-140 140 0 140 0 0 -45 0 -45 -220 0 -220 0 0 185 0 185 80 0 80 0 0 -140z
m540 85 l54 -55 49 55 49 55 91 0 92 0 -103 -103 -102 -102 0 -83 0 -82 -80 0
-80 0 0 89 0 89 -102 96 -101 96 89 0 90 0 54 -55z"/>
<path d="M1620 1830 l0 -42 80 4 c59 2 84 8 97 21 16 16 16 18 0 34 -13 13
-38 19 -97 21 l-80 4 0 -42z"/>
<path d="M2306 1816 c-9 -14 -23 -37 -31 -51 l-15 -25 60 0 60 0 -19 38 c-36
66 -37 67 -55 38z"/>
<path d="M4235 1797 c-14 -24 -25 -47 -25 -50 0 -4 25 -7 55 -7 30 0 55 2 55
4 0 6 -52 96 -55 96 -2 0 -16 -20 -30 -43z"/>
<path d="M3370 1110 l0 -30 73 0 c50 0 79 5 93 15 19 15 19 15 0 30 -14 10
-43 15 -93 15 l-73 0 0 -30z"/>
<path d="M3370 985 l0 -35 73 0 c95 0 117 7 117 35 0 28 -22 35 -117 35 l-73
0 0 -35z"/>
<path d="M4520 1100 l0 -42 80 4 c59 2 84 8 97 21 16 16 16 18 0 34 -13 13
-38 19 -97 21 l-80 4 0 -42z"/>
</g>
</svg>
